<svg width="340" height="57" viewBox="0 0 340 57" fill="none" xmlns="http://www.w3.org/2000/svg">
<path d="M71.4378 23.5089C72.3551 23.1462 73.1871 22.6556 73.9338 22.0369C74.6805 21.4182 75.3311 20.7569 75.8858 20.0529C76.8671 20.3729 77.7098 20.6289 78.4138 20.8209C79.1178 21.0129 79.7685 21.1622 80.3658 21.2689C80.9631 21.3756 81.5498 21.4502 82.1258 21.4929C82.7231 21.5142 83.3951 21.5249 84.1418 21.5249C83.9285 21.1622 83.7791 20.8422 83.6938 20.5649C83.6085 20.2662 83.5551 19.9569 83.5338 19.6369C84.9418 20.5329 86.3391 21.1409 87.7258 21.4609C89.1125 21.7596 90.4138 21.9089 91.6298 21.9089C92.0138 21.9089 92.3765 21.8982 92.7178 21.8769C93.0591 21.8342 93.3898 21.7916 93.7098 21.7489C93.1978 22.2182 92.5791 22.6662 91.8538 23.0929C91.1285 23.4982 90.3605 23.8609 89.5498 24.1809C88.7605 24.5009 87.9498 24.7569 87.1178 24.9489C86.2858 25.1409 85.5178 25.2369 84.8138 25.2369C84.3231 25.2369 83.7791 25.2262 83.1818 25.2049C82.5845 25.1836 82.0405 25.1516 81.5498 25.1089C81.5071 25.4289 81.4751 25.7596 81.4538 26.1009C81.4538 26.4422 81.4538 26.7942 81.4538 27.1569V30.8369C81.8805 30.9222 82.3605 30.9649 82.8938 30.9649C83.3845 30.9649 83.8858 30.8582 84.3978 30.6449C84.9098 30.4102 85.4111 30.1542 85.9018 29.8769C86.4991 30.2822 87.1178 30.7089 87.7578 31.1569C88.3978 31.6049 89.0805 32.0422 89.8058 32.4689C89.1871 32.8316 88.5365 33.2582 87.8538 33.7489C87.1711 34.2396 86.5311 34.6982 85.9338 35.1249C85.4858 34.8262 85.0058 34.5809 84.4938 34.3889C84.0031 34.1969 83.5125 34.1009 83.0218 34.1009C82.5098 34.1009 81.9978 34.1756 81.4858 34.3249C81.5071 35.1356 81.5071 36.0102 81.4858 36.9489C81.4858 37.8662 81.5498 38.7622 81.6778 39.6369C81.8058 40.4902 82.0298 41.2902 82.3498 42.0369C82.6698 42.7622 83.1605 43.3276 83.8218 43.7329C82.9045 44.1596 82.2005 44.6289 81.7098 45.1409C81.2405 45.6529 80.7711 46.2182 80.3018 46.8369C79.9391 46.2182 79.3311 45.6316 78.4778 45.0769C77.6458 44.5436 76.7498 44.0956 75.7898 43.7329C76.0031 43.4129 76.1845 43.0502 76.3338 42.6449C76.5045 42.2182 76.6431 41.7702 76.7498 41.3009C76.8565 40.8102 76.9311 40.3196 76.9738 39.8289C77.0378 39.3169 77.0698 38.8156 77.0698 38.3249C77.0698 37.2369 76.9418 36.2236 76.6858 35.2849C76.4511 34.3462 76.1098 33.6422 75.6618 33.1729C76.2165 32.4049 76.6005 31.4022 76.8138 30.1649C77.0485 28.9062 77.1658 27.5942 77.1658 26.2289C77.1658 25.9302 77.1551 25.6316 77.1338 25.3329C77.1338 25.0129 77.1231 24.7036 77.1018 24.4049C76.3338 24.1702 75.5871 23.9569 74.8618 23.7649C74.1578 23.5516 73.5498 23.4449 73.0378 23.4449C72.7391 23.4449 72.4618 23.4662 72.2058 23.5089C71.9711 23.5302 71.7258 23.5622 71.4698 23.6049L71.4378 23.5089ZM96.2425 41.3329C96.7119 41.3756 97.1919 41.4076 97.6825 41.4289C98.1945 41.4502 98.8239 41.5462 99.5705 41.7169V37.2049C98.9519 37.4396 98.3545 37.6422 97.7785 37.8129C97.2025 37.9622 96.7119 38.0582 96.3065 38.1009L96.2425 41.3329ZM104.499 31.1249C104.157 31.6156 103.933 32.2662 103.827 33.0769C103.741 33.8876 103.699 35.0716 103.699 36.6289C103.699 37.6529 103.72 38.4742 103.763 39.0929C103.827 39.6902 103.912 40.1702 104.019 40.5329C104.125 40.8742 104.275 41.1196 104.467 41.2689C104.659 41.3969 104.893 41.4929 105.171 41.5569V41.9089C104.872 42.0156 104.552 42.2076 104.211 42.4849C103.891 42.7409 103.571 43.0289 103.251 43.3489C102.931 43.6689 102.643 43.9996 102.387 44.3409C102.131 44.6822 101.939 44.9809 101.811 45.2369C101.363 44.9382 100.957 44.5436 100.595 44.0529C100.232 43.5622 99.9439 43.0716 99.7305 42.5809L97.5225 45.2369C96.7119 44.7462 95.8159 44.3729 94.8345 44.1169C93.8745 43.8609 92.7759 43.7222 91.5385 43.7009C91.7519 43.1462 91.8799 42.4529 91.9225 41.6209C91.9652 40.7676 91.9865 39.9142 91.9865 39.0609C91.9865 38.5489 91.9545 38.0689 91.8905 37.6209C91.8265 37.1516 91.7199 36.7356 91.5705 36.3729C92.0399 36.4369 92.5519 36.4689 93.1065 36.4689C93.7039 36.4689 94.3119 36.4476 94.9305 36.4049C95.5705 36.3409 96.1785 36.2556 96.7545 36.1489C97.3305 36.0422 97.8532 35.9249 98.3225 35.7969C98.8132 35.6476 99.2185 35.4876 99.5385 35.3169V32.1489C98.8132 32.4689 98.0559 32.7356 97.2665 32.9489C96.4772 33.1622 95.8265 33.2689 95.3145 33.2689C94.9519 33.2689 94.6105 33.2369 94.2905 33.1729C93.9919 33.0876 93.7145 32.9382 93.4585 32.7249C93.2025 32.4902 92.9679 32.1702 92.7545 31.7649C92.5625 31.3596 92.3919 30.8369 92.2425 30.1969C92.3705 30.1969 92.4559 30.2076 92.4985 30.2289C92.5625 30.2289 92.7225 30.2289 92.9785 30.2289C94.5145 30.2289 95.8372 30.0902 96.9465 29.8129C98.0559 29.5356 98.9199 29.2156 99.5385 28.8529C100.243 29.6209 100.968 30.1969 101.715 30.5809C102.483 30.9436 103.411 31.1249 104.499 31.1249ZM111.844 31.4449C111.801 31.7862 111.769 32.1169 111.748 32.4369C111.748 32.7569 111.748 33.1302 111.748 33.5569C111.748 33.9836 111.758 34.4102 111.78 34.8369C111.801 35.2636 111.833 35.6476 111.876 35.9889C112.281 35.8396 112.697 35.7116 113.124 35.6049C113.572 35.4982 114.062 35.4022 114.596 35.3169C115.15 35.2316 115.769 35.1569 116.452 35.0929C117.134 35.0289 117.934 34.9649 118.852 34.9009C118.788 35.6476 118.756 36.7356 118.756 38.1649C118.756 39.3809 118.777 40.4689 118.82 41.4289C118.862 42.3676 118.937 43.0822 119.044 43.5729C118.382 43.5729 117.71 43.6156 117.028 43.7009C116.345 43.7862 115.694 43.9036 115.076 44.0529C114.457 44.2022 113.881 44.3836 113.348 44.5969C112.814 44.8102 112.366 45.0449 112.004 45.3009C111.748 45.0662 111.46 44.8636 111.14 44.6929C110.841 44.5222 110.478 44.3836 110.052 44.2769C109.625 44.1489 109.124 44.0529 108.548 43.9889C107.972 43.9036 107.289 43.8396 106.5 43.7969C106.542 43.1356 106.67 42.4636 106.884 41.7809C107.118 41.0769 107.406 40.5116 107.748 40.0849C108.238 40.0849 109.006 40.2662 110.052 40.6289C111.097 40.9916 112.484 41.5569 114.212 42.3249C114.34 41.6422 114.436 41.0236 114.5 40.4689C114.564 39.8929 114.596 39.2956 114.596 38.6769C114.596 38.2929 114.596 38.0156 114.596 37.8449C114.596 37.6742 114.585 37.5142 114.564 37.3649C113.625 37.4502 112.537 37.6102 111.3 37.8449C110.062 38.0582 108.9 38.3142 107.812 38.6129C107.897 37.6956 107.95 36.9916 107.972 36.5009C107.993 35.9889 108.004 35.5302 108.004 35.1249C108.004 34.1649 107.95 33.3222 107.844 32.5969C107.758 31.8716 107.609 31.1996 107.396 30.5809C108.206 30.5809 109.081 30.4422 110.02 30.1649C110.958 29.8876 112.132 29.4502 113.54 28.8529C114.884 29.5356 116.889 29.9729 119.556 30.1649C119.172 31.0822 118.734 31.7542 118.244 32.1809C117.753 32.5862 117.145 32.7889 116.42 32.7889C116.1 32.7889 115.737 32.7569 115.332 32.6929C114.926 32.6289 114.51 32.5329 114.084 32.4049C113.678 32.2769 113.273 32.1382 112.868 31.9889C112.484 31.8182 112.142 31.6369 111.844 31.4449ZM130.403 47.3169C130.531 46.8902 130.648 46.3569 130.755 45.7169C130.861 45.0982 130.947 44.4796 131.011 43.8609C131.075 43.2209 131.128 42.6342 131.171 42.1009C131.213 41.5676 131.235 41.1836 131.235 40.9489C131.235 39.7329 131.224 38.5169 131.203 37.3009C131.203 36.0849 131.203 34.8689 131.203 33.6529L130.787 33.2049L126.851 34.9649V41.5249C126.851 42.8689 127.139 43.6476 127.715 43.8609V44.3409H121.827V43.8609C122.083 43.7542 122.285 43.5409 122.435 43.2209C122.605 42.8796 122.691 42.4102 122.691 41.8129V24.9809C122.691 24.4476 122.68 23.9676 122.659 23.5409C122.637 23.1142 122.584 22.7196 122.499 22.3569C122.435 21.9942 122.339 21.6422 122.211 21.3009C122.083 20.9596 121.923 20.6076 121.731 20.2449C122.157 20.3942 122.659 20.4689 123.235 20.4689C123.939 20.4689 124.675 20.3516 125.443 20.1169C126.232 19.8822 127.075 19.5516 127.971 19.1249C127.544 19.6369 127.245 20.3196 127.075 21.1729C126.925 22.0262 126.851 23.0076 126.851 24.1169V32.7569C127.768 32.1596 128.589 31.5622 129.315 30.9649C130.04 30.3676 130.787 29.6636 131.555 28.8529C131.917 29.1942 132.248 29.5036 132.547 29.7809C132.845 30.0369 133.144 30.2716 133.443 30.4849C133.763 30.6982 134.093 30.9116 134.435 31.1249C134.776 31.3169 135.171 31.5196 135.619 31.7329C135.533 32.0316 135.459 32.3516 135.395 32.6929C135.352 33.0129 135.309 33.4289 135.267 33.9409C135.245 34.4529 135.224 35.0822 135.203 35.8289C135.181 36.5756 135.171 37.5036 135.171 38.6129C135.171 39.5516 135.171 40.3302 135.171 40.9489C135.192 41.5462 135.213 42.0369 135.235 42.4209C135.256 42.8049 135.288 43.1249 135.331 43.3809C135.373 43.6156 135.416 43.8396 135.459 44.0529C135.032 44.2022 134.595 44.4049 134.147 44.6609C133.72 44.9169 133.283 45.2049 132.835 45.5249C132.408 45.8449 132.003 46.1756 131.619 46.5169C131.235 46.8582 130.893 47.1889 130.595 47.5089L130.403 47.3169ZM143.6 29.7809V41.5249C143.6 42.8689 143.888 43.6476 144.464 43.8609V44.3409C143.781 44.4476 143.141 44.5756 142.544 44.7249C141.946 44.8742 141.328 45.0449 140.688 45.2369H140.528C139.802 44.2556 139.44 43.1036 139.44 41.7809V30.6449L138.256 30.1329V29.7809C139.002 29.6742 139.813 29.5356 140.688 29.3649C141.562 29.1729 142.341 28.9916 143.024 28.8209L143.6 29.7809ZM138.544 23.5409C138.906 22.9222 139.344 22.3142 139.856 21.7169C140.389 21.0982 140.976 20.6182 141.616 20.2769C141.744 20.4476 141.936 20.6502 142.192 20.8849C142.469 21.1196 142.757 21.3542 143.056 21.5889C143.376 21.8236 143.674 22.0476 143.952 22.2609C144.25 22.4529 144.474 22.5916 144.624 22.6769C143.898 23.1889 143.28 23.6902 142.768 24.1809C142.277 24.6502 141.85 25.2476 141.488 25.9729C141.36 25.8236 141.157 25.6422 140.88 25.4289C140.624 25.1942 140.346 24.9596 140.048 24.7249C139.749 24.4902 139.461 24.2662 139.184 24.0529C138.906 23.8396 138.693 23.6689 138.544 23.5409ZM152.581 28.8529C154.053 29.3436 155.279 29.6742 156.261 29.8449C157.242 30.0156 158.149 30.1009 158.981 30.1009C159.45 30.1009 159.802 30.1009 160.037 30.1009C160.293 30.0796 160.538 30.0476 160.773 30.0049C160.517 31.3916 160.389 33.0236 160.389 34.9009C160.389 37.2049 160.581 39.4449 160.965 41.6209C160.431 41.6849 159.866 41.8236 159.269 42.0369C158.671 42.2502 158.074 42.5169 157.477 42.8369C156.879 43.1569 156.303 43.5302 155.749 43.9569C155.194 44.3622 154.693 44.7889 154.245 45.2369C154.01 45.0449 153.605 44.8422 153.029 44.6289C152.453 44.4369 151.823 44.2556 151.141 44.0849C150.458 43.9142 149.775 43.7756 149.093 43.6689C148.41 43.5622 147.845 43.5089 147.397 43.5089C147.269 43.5089 147.141 43.5196 147.013 43.5409C146.906 43.5409 146.799 43.5516 146.693 43.5729C146.991 43.3169 147.205 42.8156 147.333 42.0689C147.482 41.3009 147.557 40.3089 147.557 39.0929C147.557 38.4742 147.535 37.8022 147.493 37.0769C147.45 36.3302 147.386 35.6262 147.301 34.9649C147.237 34.3036 147.162 33.7382 147.077 33.2689C146.991 32.7996 146.906 32.5116 146.821 32.4049C147.653 32.2556 148.581 31.8716 149.605 31.2529C150.629 30.6129 151.621 29.8129 152.581 28.8529ZM156.421 32.9169C155.439 32.8316 154.479 32.6929 153.541 32.5009C152.602 32.2876 151.887 32.0529 151.397 31.7969C151.503 32.6929 151.578 33.5356 151.621 34.3249C151.663 35.0929 151.685 35.8716 151.685 36.6609C151.685 37.2796 151.663 37.9836 151.621 38.7729C151.599 39.5409 151.567 40.2982 151.525 41.0449C152.25 41.1302 153.05 41.2476 153.925 41.3969C154.799 41.5462 155.61 41.7382 156.357 41.9729L156.421 32.9169ZM168.444 32.4369C169.362 31.8396 170.183 31.2422 170.908 30.6449C171.634 30.0476 172.38 29.3436 173.148 28.5329C173.511 28.8742 173.842 29.1836 174.14 29.4609C174.439 29.7169 174.738 29.9516 175.036 30.1649C175.356 30.3782 175.687 30.5916 176.028 30.8049C176.37 30.9969 176.764 31.1996 177.212 31.4129C177.127 31.7116 177.052 32.0316 176.988 32.3729C176.946 32.6929 176.903 33.1089 176.86 33.6209C176.839 34.1329 176.818 34.7622 176.796 35.5089C176.775 36.2556 176.764 37.1836 176.764 38.2929C176.764 39.2316 176.764 40.0102 176.764 40.6289C176.786 41.2262 176.807 41.7169 176.828 42.1009C176.85 42.4849 176.882 42.8049 176.924 43.0609C176.967 43.2956 177.01 43.5196 177.052 43.7329C176.626 43.8822 176.188 44.0849 175.74 44.3409C175.314 44.5969 174.876 44.8849 174.428 45.2049C174.002 45.5249 173.596 45.8556 173.212 46.1969C172.828 46.5382 172.487 46.8689 172.188 47.1889L171.996 46.9969C172.124 46.5702 172.242 46.0369 172.348 45.3969C172.455 44.7782 172.54 44.1596 172.604 43.5409C172.668 42.9009 172.722 42.3142 172.764 41.7809C172.807 41.2476 172.828 40.8636 172.828 40.6289C172.828 39.4129 172.818 38.1969 172.796 36.9809C172.796 35.7649 172.796 34.5489 172.796 33.3329L172.38 32.8849L168.444 34.6449V41.5249C168.444 42.8689 168.732 43.6476 169.308 43.8609V44.3409H163.42V43.8609C163.676 43.7542 163.879 43.5409 164.028 43.2209C164.199 42.8796 164.284 42.4102 164.284 41.8129V30.6449L163.1 30.1329V29.7809C163.847 29.6742 164.658 29.5356 165.532 29.3649C166.407 29.1729 167.186 28.9916 167.868 28.8209L168.444 29.7809V32.4369ZM197.555 22.4849C197.619 23.5089 197.704 24.3729 197.811 25.0769C197.939 25.7596 198.088 26.4209 198.259 27.0609C198.429 27.6796 198.632 28.3516 198.867 29.0769C199.101 29.7809 199.368 30.6662 199.667 31.7329C199.453 32.1596 199.261 32.7036 199.091 33.3649C198.941 34.0049 198.803 34.6769 198.675 35.3809C198.568 36.0849 198.483 36.7782 198.419 37.4609C198.376 38.1436 198.355 38.7409 198.355 39.2529C198.355 39.6582 198.365 40.0529 198.387 40.4369C198.429 40.8209 198.504 41.1836 198.611 41.5249C197.373 41.7596 196.296 42.2929 195.379 43.1249C194.461 43.9356 193.555 44.9169 192.659 46.0689C190.931 45.3222 188.925 44.7889 186.643 44.4689C184.381 44.1702 181.96 44.0209 179.379 44.0209C179.613 43.8929 179.912 43.6582 180.275 43.3169C180.637 42.9542 180.989 42.5489 181.331 42.1009C181.672 41.6316 181.96 41.1516 182.195 40.6609C182.451 40.1489 182.579 39.6796 182.579 39.2529C182.579 38.8262 182.568 38.3462 182.547 37.8129C182.547 37.2796 182.504 36.7356 182.419 36.1809C182.355 35.6262 182.237 35.0929 182.067 34.5809C181.917 34.0476 181.704 33.5889 181.427 33.2049C181.661 32.9489 181.853 32.5649 182.003 32.0529C182.152 31.5196 182.259 30.9436 182.323 30.3249C182.408 29.6849 182.461 29.0342 182.483 28.3729C182.504 27.6902 182.515 27.0716 182.515 26.5169C182.515 25.8342 182.461 25.2476 182.355 24.7569C182.248 24.2662 182.056 23.8182 181.779 23.4129C181.523 22.9862 181.16 22.5702 180.691 22.1649C180.243 21.7596 179.667 21.2902 178.963 20.7569C180.477 20.7569 181.832 20.7569 183.027 20.7569C184.243 20.7356 185.363 20.7142 186.387 20.6929C187.411 20.6502 188.371 20.5969 189.267 20.5329C190.163 20.4476 191.059 20.3302 191.955 20.1809C192.616 20.5862 193.459 21.0022 194.483 21.4289C195.507 21.8556 196.531 22.2076 197.555 22.4849ZM193.971 39.7329C193.971 39.2636 194.003 38.6449 194.067 37.8769C194.131 37.0876 194.216 36.2982 194.323 35.5089C194.451 34.6982 194.589 33.9409 194.739 33.2369C194.909 32.5329 195.091 32.0102 195.283 31.6689C195.133 31.2422 194.963 30.7089 194.771 30.0689C194.579 29.4076 194.387 28.7249 194.195 28.0209C194.003 27.2956 193.832 26.5809 193.683 25.8769C193.533 25.1516 193.427 24.5116 193.363 23.9569C193.021 23.9569 192.584 23.9782 192.051 24.0209C191.539 24.0422 190.973 24.0956 190.355 24.1809C189.757 24.2449 189.149 24.3409 188.531 24.4689C187.933 24.5756 187.379 24.7142 186.867 24.8849C186.824 25.8449 186.792 26.9542 186.771 28.2129C186.749 29.4502 186.739 30.7729 186.739 32.1809C186.739 33.5462 186.76 34.9862 186.803 36.5009C186.867 37.9942 186.963 39.5409 187.091 41.1409C187.304 41.2049 187.581 41.2796 187.923 41.3649C188.285 41.4502 188.659 41.5356 189.043 41.6209C189.427 41.7062 189.8 41.7916 190.163 41.8769C190.547 41.9409 190.877 41.9942 191.155 42.0369C191.453 41.5462 191.859 41.0982 192.371 40.6929C192.883 40.2876 193.416 39.9676 193.971 39.7329ZM207.351 34.0689C207.842 33.2796 208.301 32.4476 208.727 31.5729C209.154 30.6982 209.549 29.7702 209.911 28.7889C210.317 29.0449 210.893 29.3116 211.639 29.5889C212.386 29.8449 213.207 30.0796 214.103 30.2929C213.997 31.1889 213.805 32.0102 213.527 32.7569C213.25 33.4822 212.898 34.0902 212.471 34.5809L210.327 33.4609H209.943L207.351 37.1089V41.5249C207.351 42.2716 207.479 42.8156 207.735 43.1569C208.013 43.4769 208.493 43.6902 209.175 43.7969V44.3409H202.327V43.8609C202.903 43.6476 203.191 42.9649 203.191 41.8129V30.6449L202.007 30.1329V29.7809C202.754 29.6742 203.565 29.5356 204.439 29.3649C205.314 29.1729 206.093 28.9916 206.775 28.8209L207.351 29.7809V34.0689ZM220.569 29.7809V41.5249C220.569 42.8689 220.857 43.6476 221.433 43.8609V44.3409C220.75 44.4476 220.11 44.5756 219.513 44.7249C218.915 44.8742 218.297 45.0449 217.657 45.2369H217.497C216.771 44.2556 216.409 43.1036 216.409 41.7809V30.6449L215.225 30.1329V29.7809C215.971 29.6742 216.782 29.5356 217.657 29.3649C218.531 29.1729 219.31 28.9916 219.993 28.8209L220.569 29.7809ZM215.513 23.5409C215.875 22.9222 216.313 22.3142 216.825 21.7169C217.358 21.0982 217.945 20.6182 218.585 20.2769C218.713 20.4476 218.905 20.6502 219.161 20.8849C219.438 21.1196 219.726 21.3542 220.025 21.5889C220.345 21.8236 220.643 22.0476 220.921 22.2609C221.219 22.4529 221.443 22.5916 221.593 22.6769C220.867 23.1889 220.249 23.6902 219.737 24.1809C219.246 24.6502 218.819 25.2476 218.457 25.9729C218.329 25.8236 218.126 25.6422 217.849 25.4289C217.593 25.1942 217.315 24.9596 217.017 24.7249C216.718 24.4902 216.43 24.2662 216.153 24.0529C215.875 23.8396 215.662 23.6689 215.513 23.5409ZM230.381 45.2369C229.763 44.7889 228.995 44.3622 228.077 43.9569C227.16 43.5516 226.211 43.2316 225.229 42.9969C225.251 42.7409 225.272 42.4529 225.293 42.1329C225.315 41.7916 225.325 41.4502 225.325 41.1089C225.347 40.7462 225.357 40.4049 225.357 40.0849C225.379 39.7436 225.389 39.4556 225.389 39.2209C225.389 37.2796 225.24 35.6476 224.941 34.3249C224.664 33.0022 224.312 31.9889 223.885 31.2849L222.957 31.0929V30.5489C223.32 30.5062 223.757 30.4316 224.269 30.3249C224.781 30.1969 225.283 30.0582 225.773 29.9089C226.285 29.7382 226.755 29.5676 227.181 29.3969C227.608 29.2049 227.928 29.0236 228.141 28.8529C228.653 29.5996 229.005 30.8262 229.197 32.5329C229.411 34.2396 229.517 36.2449 229.517 38.5489C229.517 38.9969 229.517 39.4556 229.517 39.9249C229.517 40.3729 229.507 40.8422 229.485 41.3329L231.085 42.1969H231.277C231.576 41.6849 231.832 41.0449 232.045 40.2769C232.28 39.4876 232.472 38.6662 232.621 37.8129C232.792 36.9596 232.92 36.1276 233.005 35.3169C233.091 34.4849 233.133 33.7596 233.133 33.1409C233.133 32.2876 233.037 31.6476 232.845 31.2209C232.675 30.7942 232.408 30.4956 232.045 30.3249L232.077 29.8129C232.909 29.7489 233.752 29.6422 234.605 29.4929C235.459 29.3222 236.301 29.1089 237.133 28.8529C237.091 28.9169 237.069 28.9916 237.069 29.0769C237.069 29.1622 237.069 29.2582 237.069 29.3649C237.069 30.0476 237.112 30.6982 237.197 31.3169C237.283 31.9142 237.475 32.3729 237.773 32.6929L234.669 42.1649L230.701 45.2369H230.381ZM246.097 45.3649C245.692 45.0662 245.19 44.7889 244.593 44.5329C243.996 44.2769 243.377 44.0636 242.737 43.8929C242.118 43.7009 241.51 43.5516 240.913 43.4449C240.337 43.3382 239.857 43.2849 239.473 43.2849C239.644 43.0076 239.793 42.6236 239.921 42.1329C240.049 41.6209 240.145 41.0769 240.209 40.5009C240.294 39.9036 240.348 39.2956 240.369 38.6769C240.412 38.0582 240.433 37.4929 240.433 36.9809C240.433 35.6796 240.348 34.6022 240.177 33.7489C240.028 32.8742 239.878 32.1916 239.729 31.7009C240.646 31.5302 241.478 31.1996 242.225 30.7089C242.993 30.2182 243.75 29.5996 244.497 28.8529C245.372 29.0236 246.449 29.1729 247.729 29.3009C249.009 29.4076 250.278 29.4822 251.537 29.5249C251.473 29.9089 251.441 30.3889 251.441 30.9649C251.441 31.4129 251.462 31.9036 251.505 32.4369C251.548 32.9489 251.601 33.4609 251.665 33.9729C251.729 34.4849 251.814 34.9756 251.921 35.4449C252.028 35.9142 252.145 36.3196 252.273 36.6609C250.972 36.7676 249.649 36.9169 248.305 37.1089C246.961 37.2796 245.649 37.4716 244.369 37.6849C244.348 38.3036 244.305 38.9116 244.241 39.5089C244.177 40.1062 244.124 40.6289 244.081 41.0769C244.337 41.1836 244.657 41.2796 245.041 41.3649C245.446 41.4502 245.873 41.5356 246.321 41.6209C246.769 41.6849 247.206 41.7489 247.633 41.8129C248.06 41.8556 248.422 41.8876 248.721 41.9089C248.828 41.2476 249.084 40.6822 249.489 40.2129C249.916 39.7436 250.63 39.3596 251.633 39.0609C251.612 39.3169 251.601 39.5729 251.601 39.8289C251.601 40.0636 251.601 40.2982 251.601 40.5329C251.601 41.2582 251.622 41.8342 251.665 42.2609C251.729 42.6662 251.836 43.0716 251.985 43.4769C251.58 43.5196 251.1 43.6049 250.545 43.7329C249.99 43.8396 249.436 43.9889 248.881 44.1809C248.326 44.3516 247.793 44.5329 247.281 44.7249C246.79 44.9382 246.396 45.1516 246.097 45.3649ZM244.049 31.7329C244.156 32.6289 244.23 33.4182 244.273 34.1009C244.337 34.7836 244.38 35.4129 244.401 35.9889L248.145 35.0609C248.038 34.6342 247.942 34.1862 247.857 33.7169C247.793 33.2476 247.761 32.7676 247.761 32.2769C247.27 32.2769 246.673 32.2342 245.969 32.1489C245.286 32.0422 244.646 31.9036 244.049 31.7329ZM259.663 32.4369C260.58 31.8396 261.402 31.2422 262.127 30.6449C262.852 30.0476 263.599 29.3436 264.367 28.5329C264.73 28.8742 265.06 29.1836 265.359 29.4609C265.658 29.7169 265.956 29.9516 266.255 30.1649C266.575 30.3782 266.906 30.5916 267.247 30.8049C267.588 30.9969 267.983 31.1996 268.431 31.4129C268.346 31.7116 268.271 32.0316 268.207 32.3729C268.164 32.6929 268.122 33.1089 268.079 33.6209C268.058 34.1329 268.036 34.7622 268.015 35.5089C267.994 36.2556 267.983 37.1836 267.983 38.2929C267.983 39.2316 267.983 40.0102 267.983 40.6289C268.004 41.2262 268.026 41.7169 268.047 42.1009C268.068 42.4849 268.1 42.8049 268.143 43.0609C268.186 43.2956 268.228 43.5196 268.271 43.7329C267.844 43.8822 267.407 44.0849 266.959 44.3409C266.532 44.5969 266.095 44.8849 265.647 45.2049C265.22 45.5249 264.815 45.8556 264.431 46.1969C264.047 46.5382 263.706 46.8689 263.407 47.1889L263.215 46.9969C263.343 46.5702 263.46 46.0369 263.567 45.3969C263.674 44.7782 263.759 44.1596 263.823 43.5409C263.887 42.9009 263.94 42.3142 263.983 41.7809C264.026 41.2476 264.047 40.8636 264.047 40.6289C264.047 39.4129 264.036 38.1969 264.015 36.9809C264.015 35.7649 264.015 34.5489 264.015 33.3329L263.599 32.8849L259.663 34.6449V41.5249C259.663 42.8689 259.951 43.6476 260.527 43.8609V44.3409H254.639V43.8609C254.895 43.7542 255.098 43.5409 255.247 43.2209C255.418 42.8796 255.503 42.4102 255.503 41.8129V30.6449L254.319 30.1329V29.7809C255.066 29.6742 255.876 29.5356 256.751 29.3649C257.626 29.1729 258.404 28.9916 259.087 28.8209L259.663 29.7809V32.4369Z" fill="#FCFCFC"/>
<rect width="9.33598" height="44.8925" rx="4.66799" transform="matrix(0.863562 -0.504243 0.495769 0.868455 0.0358887 17.1986)" fill="#FF546D"/>
<rect width="9.33598" height="38.8505" rx="4.66799" transform="matrix(0.863562 -0.504243 0.495769 0.868455 28.33 7.67401)" fill="#00D4E6"/>
<rect width="9.38887" height="44.154" rx="4.69444" transform="matrix(-0.495769 -0.868455 0.863562 -0.504243 7.68622 30.6)" fill="#FFAA50"/>
<path d="M31.8162 49.2229C28.0322 52.1955 22.7081 56.9148 20.3256 52.7413V52.7413V52.7413C17.932 48.5482 23.4183 44.1102 27.1968 41.0936C28.8173 39.8 30.8834 38.3462 33.4823 36.8287C36.0811 35.3112 38.359 34.2284 40.277 33.456C44.7493 31.6547 51.2927 29.0685 53.6864 33.2616V33.2616V33.2616C56.0689 37.435 49.3658 39.7386 44.9283 41.5665C43.0473 42.3414 40.7854 43.4361 38.137 44.9825C35.4886 46.529 33.4202 47.9627 31.8162 49.2229Z" fill="#6D86F5"/>
<rect width="9.33598" height="25.7369" rx="4.66799" transform="matrix(0.863562 -0.504243 0.495769 0.868455 0.0408325 17.2069)" fill="#FF546D"/>
<rect width="9.33598" height="22.8397" rx="4.66799" transform="matrix(0.863562 -0.504243 0.495769 0.868455 36.2677 21.5788)" fill="#00D4E6"/>
</svg>
